<svg width="1362" height="219" viewBox="0 0 1362 219" fill="none" xmlns="http://www.w3.org/2000/svg">
<path d="M255.961 216.873C196.246 216.873 147.654 168.281 147.654 108.567C147.654 79.6485 158.921 52.4346 179.375 31.9808C199.915 11.5271 227.071 0.289062 255.961 0.289062C306.489 0.289062 349.823 34.6098 361.379 83.7797L362.448 88.402H207.08L206.387 85.513C202.4 68.4971 194.051 52.8679 182.119 40.041C164.699 58.7903 155.194 82.9708 155.194 108.625C155.194 164.208 200.406 209.42 255.99 209.42V216.873H255.961ZM212.973 80.8618H352.856C340.578 37.6143 301.404 7.80033 255.961 7.80033C230.307 7.80033 206.127 17.3339 187.435 34.6964C199.655 47.7834 208.438 63.6148 212.973 80.8618Z" fill="#F6F3EA"/>
<path d="M255.96 216.873V209.362C300.71 209.362 339.74 180.126 352.451 137.687H212.626C207.628 155.599 198.037 172.008 184.777 185.239L179.461 179.924C192.461 166.952 201.648 150.745 206.068 133.036L206.79 130.176H362.216L361.06 134.827C349.013 183.159 305.795 216.873 255.96 216.873Z" fill="#F6F3EA"/>
<path d="M255.961 216.873H108.307C48.5921 216.873 0 168.31 0 108.596C0 79.6774 11.2669 52.4635 31.7206 32.0097C52.1744 11.556 79.3594 0.289062 108.307 0.289062H255.99V7.80033H108.307C81.3817 7.80033 56.0745 18.2872 37.0363 37.3254C17.9981 56.3635 7.51126 81.6707 7.51126 108.596C7.51126 164.179 52.7233 209.391 108.307 209.391H255.961V216.873Z" fill="#F6F3EA"/>
<path d="M636.261 131.476C627.074 153.576 605.696 167.877 581.775 167.877C549.246 167.877 522.783 141.414 522.783 108.884C522.783 92.6774 528.619 78.6083 540.088 67.1391C551.239 56.0167 566.031 49.8921 581.775 49.8921C601.276 49.8921 619.505 59.5412 630.512 75.6615L671.68 47.5232C651.37 17.767 617.772 0 581.775 0C552.742 0 525.441 11.2958 504.236 32.4718C484.042 52.6366 472.92 79.7927 472.92 108.884C472.92 168.917 521.743 217.74 581.775 217.74C625.919 217.74 665.382 191.364 682.311 150.601L636.261 131.476Z" fill="#1D1D1B"/>
<path d="M899.819 167.126V214.793H767.881L767.736 2.51355H818.293V167.126H899.819Z" fill="#1D1D1B"/>
<path d="M1033.69 50.2679V84.7908H1105.95V132.401H1033.69V167.126H1124.29V214.793H983.137V2.51355H1121.89V50.2679H1033.69Z" fill="#1D1D1B"/>
<path d="M1338.74 103.396C1328.89 97.1556 1316.03 92.5621 1300.52 88.4598C1298.52 87.9398 1296.53 87.4198 1294.45 86.8998C1277.2 82.7397 1260.56 78.5796 1260.56 64.886C1260.56 53.8791 1271.28 48.8235 1284.34 48.8235C1298.15 48.8235 1314.59 54.9769 1323.86 66.2149L1357.78 33.9454C1339.34 11.0649 1311.99 0.346924 1286.13 0.346924C1245.69 0.346924 1210.01 25.0185 1210.01 71.1262C1210.01 102.038 1226.85 116.8 1259.15 127.807C1265.07 129.83 1271.43 131.736 1278.39 133.585C1280.06 134.019 1281.71 134.452 1283.36 134.914C1298.29 138.959 1311.09 143.35 1311.09 153.808C1311.09 163.919 1300.69 168.975 1287.31 168.975C1274.75 168.975 1259.99 164.237 1248.52 154.732C1245.43 152.161 1242.57 149.243 1240.05 145.979L1204.66 179.664C1225.17 205.838 1256.11 218.029 1284.95 218.029C1325.68 218.029 1361.97 195.438 1361.97 148.146C1361.94 126.392 1353.82 112.958 1338.74 103.396Z" fill="#1D1D1B"/>
</svg>
