<svg width="108" height="64" viewBox="0 0 108 64" fill="none" xmlns="http://www.w3.org/2000/svg">
<path d="M75.6358 64C57.9903 64 43.6315 49.6412 43.6315 31.9957C43.6315 23.4504 46.9608 15.4088 53.0048 9.36481C59.0745 3.32079 67.099 0 75.6358 0C90.5665 0 103.372 10.1417 106.786 24.6712L107.102 26.0371H61.1916L60.9867 25.1834C59.8086 20.1553 57.3415 15.5369 53.8158 11.7466C48.6682 17.2869 45.8596 24.4322 45.8596 32.0128C45.8596 48.4375 59.2196 61.7975 75.6443 61.7975V64H75.6358ZM62.9331 23.809H104.268C100.64 11.0295 89.0641 2.21955 75.6358 2.21955C68.0551 2.21955 60.9099 5.03668 55.3866 10.1673C58.9976 14.0344 61.5928 18.7126 62.9331 23.809Z" fill="#FFCD1C"/>
<path d="M75.6356 64V61.7805C88.8591 61.7805 100.392 53.1413 104.148 40.6008H62.8305C61.3537 45.8936 58.5195 50.7424 54.6011 54.6523L53.0303 53.0815C56.8719 49.2485 59.5866 44.4594 60.8927 39.2264L61.1061 38.3812H107.034L106.692 39.7556C103.133 54.0376 90.3615 64 75.6356 64Z" fill="#FFCD1C"/>
<path d="M75.6356 64H32.0043C14.3588 64 0 49.6497 0 32.0043C0 23.459 3.32933 15.4174 9.37335 9.37335C15.4174 3.32933 23.4504 0 32.0043 0H75.6441V2.21955H32.0043C24.048 2.21955 16.5698 5.31839 10.9441 10.9441C5.31839 16.5698 2.21955 24.048 2.21955 32.0043C2.21955 48.429 15.5796 61.789 32.0043 61.789H75.6356V64Z" fill="#FFCD1C"/>
</svg>
